<svg width="900" height="675" viewBox="0 0 900 675" fill="none" xmlns="http://www.w3.org/2000/svg">
<g opacity="0.7" clip-path="url(#clip0_177_10)">
<path d="M0 62L15 58.7C30 55.3 60 48.7 90 56.5C120 64.3 150 86.7 180 96.7C210 106.7 240 104.3 270 108.8C300 113.3 330 124.7 360 124.7C390 124.7 420 113.3 450 95.3C480 77.3 510 52.7 540 49.3C570 46 600 64 630 68.5C660 73 690 64 720 59.5C750 55 780 55 810 56.2C840 57.3 870 59.7 885 60.8L900 62V0H885C870 0 840 0 810 0C780 0 750 0 720 0C690 0 660 0 630 0C600 0 570 0 540 0C510 0 480 0 450 0C420 0 390 0 360 0C330 0 300 0 270 0C240 0 210 0 180 0C150 0 120 0 90 0C60 0 30 0 15 0H0V62Z" fill="#6610F2"/>
<path d="M0 109H15C30 109 60 109 90 120.3C120 131.7 150 154.3 180 166.7C210 179 240 181 270 179.8C300 178.7 330 174.3 360 178.8C390 183.3 420 196.7 450 177.5C480 158.3 510 106.7 540 102.2C570 97.6999 600 140.3 630 146C660 151.7 690 120.3 720 115.8C750 111.3 780 133.7 810 134.8C840 136 870 116 885 106L900 96V60L885 58.8C870 57.7 840 55.3 810 54.2C780 53 750 53 720 57.5C690 62 660 71 630 66.5C600 62 570 44 540 47.3C510 50.7 480 75.3 450 93.3C420 111.3 390 122.7 360 122.7C330 122.7 300 111.3 270 106.8C240 102.3 210 104.7 180 94.6999C150 84.6999 120 62.3 90 54.5C60 46.7 30 53.3 15 56.7L0 60V109Z" fill="#F4009A"/>
<path d="M0 352L15 341.8C30 331.7 60 311.3 90 293.3C120 275.3 150 259.7 180 264.2C210 268.7 240 293.3 270 321.5C300 349.7 330 381.3 360 380.3C390 379.3 420 345.7 450 311.8C480 278 510 244 540 254C570 264 600 318 630 337.2C660 356.3 690 340.7 720 317.2C750 293.7 780 262.3 810 274.7C840 287 870 343 885 371L900 399V94L885 104C870 114 840 134 810 132.8C780 131.7 750 109.3 720 113.8C690 118.3 660 149.7 630 144C600 138.3 570 95.7 540 100.2C510 104.7 480 156.3 450 175.5C420 194.7 390 181.3 360 176.8C330 172.3 300 176.7 270 177.8C240 179 210 177 180 164.7C150 152.3 120 129.7 90 118.3C60 107 30 107 15 107H0V352Z" fill="#FF736D"/>
<path d="M0 433L15 419.5C30 406 60 379 90 359.8C120 340.7 150 329.3 180 338.3C210 347.3 240 376.7 270 395.8C300 415 330 424 360 417.3C390 410.7 420 388.3 450 365.8C480 343.3 510 320.7 540 333C570 345.3 600 392.7 630 408.5C660 424.3 690 408.7 720 378.3C750 348 780 303 810 309.7C840 316.3 870 374.7 885 403.8L900 433V397L885 369C870 341 840 285 810 272.7C780 260.3 750 291.7 720 315.2C690 338.7 660 354.3 630 335.2C600 316 570 262 540 252C510 242 480 276 450 309.8C420 343.7 390 377.3 360 378.3C330 379.3 300 347.7 270 319.5C240 291.3 210 266.7 180 262.2C150 257.7 120 273.3 90 291.3C60 309.3 30 329.7 15 339.8L0 350V433Z" fill="#FF956F"/>
<path d="M0 521L15 513C30 505 60 489 90 483.3C120 477.7 150 482.3 180 491.5C210 500.7 240 514.3 270 525.7C300 537 330 546 360 541.5C390 537 420 519 450 511C480 503 510 505 540 517.3C570 529.7 600 552.3 630 555.8C660 559.3 690 543.7 720 522.3C750 501 780 474 810 480.7C840 487.3 870 527.7 885 547.8L900 568V431L885 401.8C870 372.7 840 314.3 810 307.7C780 301 750 346 720 376.3C690 406.7 660 422.3 630 406.5C600 390.7 570 343.3 540 331C510 318.7 480 341.3 450 363.8C420 386.3 390 408.7 360 415.3C330 422 300 413 270 393.8C240 374.7 210 345.3 180 336.3C150 327.3 120 338.7 90 357.8C60 377 30 404 15 417.5L0 431V521Z" fill="#FF736D"/>
<path d="M0 582L15 577.5C30 573 60 564 90 558.3C120 552.7 150 550.3 180 553.7C210 557 240 566 270 579.5C300 593 330 611 360 605.3C390 599.7 420 570.3 450 561.3C480 552.3 510 563.7 540 578.3C570 593 600 611 630 615.5C660 620 690 611 720 594.2C750 577.3 780 552.7 810 550.3C840 548 870 568 885 578L900 588V566L885 545.8C870 525.7 840 485.3 810 478.7C780 472 750 499 720 520.3C690 541.7 660 557.3 630 553.8C600 550.3 570 527.7 540 515.3C510 503 480 501 450 509C420 517 390 535 360 539.5C330 544 300 535 270 523.7C240 512.3 210 498.7 180 489.5C150 480.3 120 475.7 90 481.3C60 487 30 503 15 511L0 519V582Z" fill="#F4009A"/>
<path d="M0 676H15C30 676 60 676 90 676C120 676 150 676 180 676C210 676 240 676 270 676C300 676 330 676 360 676C390 676 420 676 450 676C480 676 510 676 540 676C570 676 600 676 630 676C660 676 690 676 720 676C750 676 780 676 810 676C840 676 870 676 885 676H900V586L885 576C870 566 840 546 810 548.3C780 550.7 750 575.3 720 592.2C690 609 660 618 630 613.5C600 609 570 591 540 576.3C510 561.7 480 550.3 450 559.3C420 568.3 390 597.7 360 603.3C330 609 300 591 270 577.5C240 564 210 555 180 551.7C150 548.3 120 550.7 90 556.3C60 562 30 571 15 575.5L0 580V676Z" fill="#6610F2"/>
</g>
<defs>
<clipPath id="clip0_177_10">
<rect width="900" height="675" fill="white"/>
</clipPath>
</defs>
</svg>
