<svg width="900" height="675" viewBox="0 0 900 675" fill="none" xmlns="http://www.w3.org/2000/svg">
<g opacity="0.8" clip-path="url(#clip0_177_2)">
<path d="M0.5 0.5H899.5V674.5H0.5V0.5Z" fill="#5D25CE" stroke="black"/>
<path d="M900 478.1C845.9 455 791.9 431.9 728.6 413.9C665.2 395.9 592.7 382.9 561.9 338.1C531.2 293.3 542.2 216.6 525.8 155C509.5 93.3 465.7 46.7 421.9 0H900V478.1Z" fill="#EB2C88"/>
<path d="M900 239.1C873 227.5 845.9 216 814.3 206.9C782.6 197.9 746.3 191.4 731 169C715.6 146.6 721.1 108.3 712.9 77.5C704.7 46.7 682.8 23.3 660.9 0H900V239.1Z" fill="#FF956F"/>
<path d="M0 196.9C70.6 195.5 141.3 194.2 183 233.3C224.7 272.3 237.5 351.8 275.8 399.2C314 446.7 377.8 462.2 415.7 502.8C453.7 543.4 465.9 609.2 478.1 675H0V196.9Z" fill="#EB2C88"/>
<path d="M0 435.9C35.3 435.3 70.6 434.6 91.5 454.1C112.3 473.7 118.7 513.4 137.9 537.1C157 560.8 188.9 568.6 207.9 588.9C226.9 609.2 233 642.1 239.1 675H0V435.9Z" fill="#FF956F"/>
</g>
<defs>
<clipPath id="clip0_177_2">
<rect width="900" height="675" fill="white"/>
</clipPath>
</defs>
</svg>
